<svg xmlns="http://www.w3.org/2000/svg" width="920" height="346" viewBox="0 0 920 346" role="img" aria-labelledby="title desc">
<title id="title">Artistic Knowledge and Inquiry department histogram</title>
<desc id="desc">Courses by department code</desc>
<rect width="100%" height="100%" fill="#ffffff"/>
<text x="92" y="28" font-family="Arial, sans-serif" font-size="20" font-weight="700" fill="#2c0c19">Artistic Knowledge and Inquiry</text>
<text x="92" y="50" font-family="Arial, sans-serif" font-size="12" fill="#6b7280">Courses by department code</text>
<rect x="92" y="57" width="10" height="10" rx="2" fill="#82284A"/>
<text x="106" y="66" font-family="Arial, sans-serif" font-size="11" fill="#374151">Courses (3 credit hours required)</text>
<text x="80" y="91" text-anchor="end" font-family="Arial, sans-serif" font-size="12" font-weight="700" fill="#374151">FNAR</text>
<line x1="92" y1="86" x2="888" y2="86" stroke="#f3f4f6" stroke-width="1"/>
<rect x="92" y="78" width="796.00" height="16" rx="3" fill="#82284A"/>
<text x="490.00" y="90" text-anchor="middle" font-family="Arial, sans-serif" font-size="10" fill="#ffffff">11</text>
<text x="896" y="91" font-family="Arial, sans-serif" font-size="12" fill="#374151">11</text>
<text x="80" y="119" text-anchor="end" font-family="Arial, sans-serif" font-size="12" font-weight="700" fill="#374151">MUSC</text>
<line x1="92" y1="114" x2="888" y2="114" stroke="#f3f4f6" stroke-width="1"/>
<rect x="92" y="106" width="723.64" height="16" rx="3" fill="#82284A"/>
<text x="453.82" y="118" text-anchor="middle" font-family="Arial, sans-serif" font-size="10" fill="#ffffff">10</text>
<text x="896" y="119" font-family="Arial, sans-serif" font-size="12" fill="#374151">10</text>
<text x="80" y="147" text-anchor="end" font-family="Arial, sans-serif" font-size="12" font-weight="700" fill="#374151">ENGL</text>
<line x1="92" y1="142" x2="888" y2="142" stroke="#f3f4f6" stroke-width="1"/>
<rect x="92" y="134" width="289.45" height="16" rx="3" fill="#82284A"/>
<text x="236.73" y="146" text-anchor="middle" font-family="Arial, sans-serif" font-size="10" fill="#ffffff">4</text>
<text x="896" y="147" font-family="Arial, sans-serif" font-size="12" fill="#374151">4</text>
<text x="80" y="175" text-anchor="end" font-family="Arial, sans-serif" font-size="12" font-weight="700" fill="#374151">DANC</text>
<line x1="92" y1="170" x2="888" y2="170" stroke="#f3f4f6" stroke-width="1"/>
<rect x="92" y="162" width="217.09" height="16" rx="3" fill="#82284A"/>
<text x="200.55" y="174" text-anchor="middle" font-family="Arial, sans-serif" font-size="10" fill="#ffffff">3</text>
<text x="896" y="175" font-family="Arial, sans-serif" font-size="12" fill="#374151">3</text>
<text x="80" y="203" text-anchor="end" font-family="Arial, sans-serif" font-size="12" font-weight="700" fill="#374151">THTR</text>
<line x1="92" y1="198" x2="888" y2="198" stroke="#f3f4f6" stroke-width="1"/>
<rect x="92" y="190" width="217.09" height="16" rx="3" fill="#82284A"/>
<text x="200.55" y="202" text-anchor="middle" font-family="Arial, sans-serif" font-size="10" fill="#ffffff">3</text>
<text x="896" y="203" font-family="Arial, sans-serif" font-size="12" fill="#374151">3</text>
<text x="80" y="231" text-anchor="end" font-family="Arial, sans-serif" font-size="12" font-weight="700" fill="#374151">CLST</text>
<line x1="92" y1="226" x2="888" y2="226" stroke="#f3f4f6" stroke-width="1"/>
<rect x="92" y="218" width="144.73" height="16" rx="3" fill="#82284A"/>
<text x="164.36" y="230" text-anchor="middle" font-family="Arial, sans-serif" font-size="10" fill="#ffffff">2</text>
<text x="896" y="231" font-family="Arial, sans-serif" font-size="12" fill="#374151">2</text>
<text x="80" y="259" text-anchor="end" font-family="Arial, sans-serif" font-size="12" font-weight="700" fill="#374151">COMM</text>
<line x1="92" y1="254" x2="888" y2="254" stroke="#f3f4f6" stroke-width="1"/>
<rect x="92" y="246" width="72.36" height="16" rx="3" fill="#82284A"/>
<text x="128.18" y="258" text-anchor="middle" font-family="Arial, sans-serif" font-size="10" fill="#ffffff">1</text>
<text x="896" y="259" font-family="Arial, sans-serif" font-size="12" fill="#374151">1</text>
<text x="80" y="287" text-anchor="end" font-family="Arial, sans-serif" font-size="12" font-weight="700" fill="#374151">LITR</text>
<line x1="92" y1="282" x2="888" y2="282" stroke="#f3f4f6" stroke-width="1"/>
<rect x="92" y="274" width="72.36" height="16" rx="3" fill="#82284A"/>
<text x="128.18" y="286" text-anchor="middle" font-family="Arial, sans-serif" font-size="10" fill="#ffffff">1</text>
<text x="896" y="287" font-family="Arial, sans-serif" font-size="12" fill="#374151">1</text>
<text x="92" y="332" font-family="Arial, sans-serif" font-size="11" fill="#6b7280">Total courses: 35</text>
</svg>
