<svg xmlns="http://www.w3.org/2000/svg" width="920" height="234" viewBox="0 0 920 234" role="img" aria-labelledby="title desc">
<title id="title">Literary Knowledge and Inquiry department histogram</title>
<desc id="desc">Courses by department code (stacked by catalog section)</desc>
<rect width="100%" height="100%" fill="#ffffff"/>
<text x="92" y="28" font-family="Arial, sans-serif" font-size="20" font-weight="700" fill="#2c0c19">Literary Knowledge and Inquiry</text>
<text x="92" y="50" font-family="Arial, sans-serif" font-size="12" fill="#6b7280">Courses by department code (stacked by catalog section)</text>
<rect x="92" y="57" width="10" height="10" rx="2" fill="#82284A"/>
<text x="106" y="66" font-family="Arial, sans-serif" font-size="11" fill="#374151">Foundational/Tier I</text>
<rect x="224" y="57" width="10" height="10" rx="2" fill="#C8A951"/>
<text x="238" y="66" font-family="Arial, sans-serif" font-size="11" fill="#374151">Tier II</text>
<text x="80" y="91" text-anchor="end" font-family="Arial, sans-serif" font-size="12" font-weight="700" fill="#374151">ENGL</text>
<line x1="92" y1="86" x2="888" y2="86" stroke="#f3f4f6" stroke-width="1"/>
<rect x="92" y="78" width="796.00" height="16" rx="3" fill="#C8A951"/>
<text x="490.00" y="90" text-anchor="middle" font-family="Arial, sans-serif" font-size="10" fill="#ffffff">10</text>
<text x="896" y="91" font-family="Arial, sans-serif" font-size="12" fill="#374151">10</text>
<text x="80" y="119" text-anchor="end" font-family="Arial, sans-serif" font-size="12" font-weight="700" fill="#374151">CLST</text>
<line x1="92" y1="114" x2="888" y2="114" stroke="#f3f4f6" stroke-width="1"/>
<rect x="92" y="106" width="636.80" height="16" rx="3" fill="#C8A951"/>
<text x="410.40" y="118" text-anchor="middle" font-family="Arial, sans-serif" font-size="10" fill="#ffffff">8</text>
<text x="896" y="119" font-family="Arial, sans-serif" font-size="12" fill="#374151">8</text>
<text x="80" y="147" text-anchor="end" font-family="Arial, sans-serif" font-size="12" font-weight="700" fill="#374151">LITR</text>
<line x1="92" y1="142" x2="888" y2="142" stroke="#f3f4f6" stroke-width="1"/>
<rect x="92" y="134" width="477.60" height="16" rx="3" fill="#C8A951"/>
<text x="330.80" y="146" text-anchor="middle" font-family="Arial, sans-serif" font-size="10" fill="#ffffff">6</text>
<text x="896" y="147" font-family="Arial, sans-serif" font-size="12" fill="#374151">6</text>
<text x="80" y="175" text-anchor="end" font-family="Arial, sans-serif" font-size="12" font-weight="700" fill="#374151">UCLR</text>
<line x1="92" y1="170" x2="888" y2="170" stroke="#f3f4f6" stroke-width="1"/>
<rect x="92" y="162" width="238.80" height="16" rx="3" fill="#82284A"/>
<text x="211.40" y="174" text-anchor="middle" font-family="Arial, sans-serif" font-size="10" fill="#ffffff">3</text>
<text x="896" y="175" font-family="Arial, sans-serif" font-size="12" fill="#374151">3</text>
<text x="92" y="220" font-family="Arial, sans-serif" font-size="11" fill="#6b7280">Total courses: 27</text>
</svg>
