<svg xmlns="http://www.w3.org/2000/svg" width="920" height="318" viewBox="0 0 920 318" role="img" aria-labelledby="title desc">
<title id="title">Societal and Cultural Knowledge and Inquiry department histogram</title>
<desc id="desc">Courses by department code (stacked by catalog section)</desc>
<rect width="100%" height="100%" fill="#ffffff"/>
<text x="92" y="28" font-family="Arial, sans-serif" font-size="20" font-weight="700" fill="#2c0c19">Societal and Cultural Knowledge and Inquiry</text>
<text x="92" y="50" font-family="Arial, sans-serif" font-size="12" fill="#6b7280">Courses by department code (stacked by catalog section)</text>
<rect x="92" y="57" width="10" height="10" rx="2" fill="#82284A"/>
<text x="106" y="66" font-family="Arial, sans-serif" font-size="11" fill="#374151">Foundational/Tier I</text>
<rect x="224" y="57" width="10" height="10" rx="2" fill="#C8A951"/>
<text x="238" y="66" font-family="Arial, sans-serif" font-size="11" fill="#374151">Tier II</text>
<text x="80" y="91" text-anchor="end" font-family="Arial, sans-serif" font-size="12" font-weight="700" fill="#374151">SOCL</text>
<line x1="92" y1="86" x2="888" y2="86" stroke="#f3f4f6" stroke-width="1"/>
<rect x="92" y="78" width="113.71" height="16" rx="3" fill="#82284A"/>
<text x="148.86" y="90" text-anchor="middle" font-family="Arial, sans-serif" font-size="10" fill="#ffffff">1</text>
<rect x="205.71428571428572" y="78" width="682.29" height="16" rx="3" fill="#C8A951"/>
<text x="546.86" y="90" text-anchor="middle" font-family="Arial, sans-serif" font-size="10" fill="#ffffff">6</text>
<text x="896" y="91" font-family="Arial, sans-serif" font-size="12" fill="#374151">7</text>
<text x="80" y="119" text-anchor="end" font-family="Arial, sans-serif" font-size="12" font-weight="700" fill="#374151">ANTH</text>
<line x1="92" y1="114" x2="888" y2="114" stroke="#f3f4f6" stroke-width="1"/>
<rect x="92" y="106" width="113.71" height="16" rx="3" fill="#82284A"/>
<text x="148.86" y="118" text-anchor="middle" font-family="Arial, sans-serif" font-size="10" fill="#ffffff">1</text>
<rect x="205.71428571428572" y="106" width="341.14" height="16" rx="3" fill="#C8A951"/>
<text x="376.29" y="118" text-anchor="middle" font-family="Arial, sans-serif" font-size="10" fill="#ffffff">3</text>
<text x="896" y="119" font-family="Arial, sans-serif" font-size="12" fill="#374151">4</text>
<text x="80" y="147" text-anchor="end" font-family="Arial, sans-serif" font-size="12" font-weight="700" fill="#374151">CJC</text>
<line x1="92" y1="142" x2="888" y2="142" stroke="#f3f4f6" stroke-width="1"/>
<rect x="92" y="134" width="341.14" height="16" rx="3" fill="#C8A951"/>
<text x="262.57" y="146" text-anchor="middle" font-family="Arial, sans-serif" font-size="10" fill="#ffffff">3</text>
<text x="896" y="147" font-family="Arial, sans-serif" font-size="12" fill="#374151">3</text>
<text x="80" y="175" text-anchor="end" font-family="Arial, sans-serif" font-size="12" font-weight="700" fill="#374151">PLSC</text>
<line x1="92" y1="170" x2="888" y2="170" stroke="#f3f4f6" stroke-width="1"/>
<rect x="92" y="162" width="113.71" height="16" rx="3" fill="#82284A"/>
<text x="148.86" y="174" text-anchor="middle" font-family="Arial, sans-serif" font-size="10" fill="#ffffff">1</text>
<rect x="205.71428571428572" y="162" width="227.43" height="16" rx="3" fill="#C8A951"/>
<text x="319.43" y="174" text-anchor="middle" font-family="Arial, sans-serif" font-size="10" fill="#ffffff">2</text>
<text x="896" y="175" font-family="Arial, sans-serif" font-size="12" fill="#374151">3</text>
<text x="80" y="203" text-anchor="end" font-family="Arial, sans-serif" font-size="12" font-weight="700" fill="#374151">PSYC</text>
<line x1="92" y1="198" x2="888" y2="198" stroke="#f3f4f6" stroke-width="1"/>
<rect x="92" y="190" width="341.14" height="16" rx="3" fill="#C8A951"/>
<text x="262.57" y="202" text-anchor="middle" font-family="Arial, sans-serif" font-size="10" fill="#ffffff">3</text>
<text x="896" y="203" font-family="Arial, sans-serif" font-size="12" fill="#374151">3</text>
<text x="80" y="231" text-anchor="end" font-family="Arial, sans-serif" font-size="12" font-weight="700" fill="#374151">ECON</text>
<line x1="92" y1="226" x2="888" y2="226" stroke="#f3f4f6" stroke-width="1"/>
<rect x="92" y="218" width="227.43" height="16" rx="3" fill="#C8A951"/>
<text x="205.71" y="230" text-anchor="middle" font-family="Arial, sans-serif" font-size="10" fill="#ffffff">2</text>
<text x="896" y="231" font-family="Arial, sans-serif" font-size="12" fill="#374151">2</text>
<text x="80" y="259" text-anchor="end" font-family="Arial, sans-serif" font-size="12" font-weight="700" fill="#374151">WSGS</text>
<line x1="92" y1="254" x2="888" y2="254" stroke="#f3f4f6" stroke-width="1"/>
<rect x="92" y="246" width="113.71" height="16" rx="3" fill="#82284A"/>
<text x="148.86" y="258" text-anchor="middle" font-family="Arial, sans-serif" font-size="10" fill="#ffffff">1</text>
<rect x="205.71428571428572" y="246" width="113.71" height="16" rx="3" fill="#C8A951"/>
<text x="262.57" y="258" text-anchor="middle" font-family="Arial, sans-serif" font-size="10" fill="#ffffff">1</text>
<text x="896" y="259" font-family="Arial, sans-serif" font-size="12" fill="#374151">2</text>
<text x="92" y="304" font-family="Arial, sans-serif" font-size="11" fill="#6b7280">Total courses: 24</text>
</svg>
